inDegrees=no
num_controls=7
num_derivatives=13
num_iterations=108
num_multipliers=7
num_parameters=0
num_slacks=7
num_states=26
objective=0.448467
objective_accelerations=0.050184
objective_balance=0.007412
objective_effort=0.036919
objective_height=0.349010
objective_ligament=0.004944
solver_duration=1580.548307
status=Solve_Succeeded
success=true
DataType=double
version=3
OpenSimVersion=4.5
endheader
time	/jointset/ground_pelvis/pelvis_tilt/value	/jointset/ground_pelvis/pelvis_tx/value	/jointset/ground_pelvis/pelvis_ty/value	/jointset/hip_l/hip_flexion_l/value	/jointset/hip_l/hip_adduction_l/value	/jointset/hip_l/hip_rotation_l/value	/jointset/back/lumbar_extension/value	/jointset/patellofemoral_l/patellar_flexion_l/value	/jointset/knee_l/knee_flexion_l/value	/jointset/knee_l/knee_adduction_l/value	/jointset/knee_l/knee_rotation_l/value	/jointset/ankle_l/ankle_angle_l/value	/jointset/subtalar_l/subtalar_angle_l/value	/jointset/ground_pelvis/pelvis_tilt/speed	/jointset/ground_pelvis/pelvis_tx/speed	/jointset/ground_pelvis/pelvis_ty/speed	/jointset/hip_l/hip_flexion_l/speed	/jointset/hip_l/hip_adduction_l/speed	/jointset/hip_l/hip_rotation_l/speed	/jointset/back/lumbar_extension/speed	/jointset/patellofemoral_l/patellar_flexion_l/speed	/jointset/knee_l/knee_flexion_l/speed	/jointset/knee_l/knee_adduction_l/speed	/jointset/knee_l/knee_rotation_l/speed	/jointset/ankle_l/ankle_angle_l/speed	/jointset/subtalar_l/subtalar_angle_l/speed	/forceset/tau_hip_flexion_l	/forceset/tau_hip_adduction_l	/forceset/tau_hip_rotation_l	/forceset/tau_knee_flexion_l	/forceset/tau_ankle_angle_l	/forceset/tau_subtalar_angle_l	/forceset/tau_lumbar_extension	lambda_cid13_p0	lambda_cid13_p1	lambda_cid13_p2	lambda_cid13_p3	lambda_cid13_p4	lambda_cid13_p5	lambda_cid14_p0	/jointset/ground_pelvis/pelvis_tilt/accel	/jointset/ground_pelvis/pelvis_tx/accel	/jointset/ground_pelvis/pelvis_ty/accel	/jointset/hip_l/hip_flexion_l/accel	/jointset/hip_l/hip_adduction_l/accel	/jointset/hip_l/hip_rotation_l/accel	/jointset/back/lumbar_extension/accel	/jointset/patellofemoral_l/patellar_flexion_l/accel	/jointset/knee_l/knee_flexion_l/accel	/jointset/knee_l/knee_adduction_l/accel	/jointset/knee_l/knee_rotation_l/accel	/jointset/ankle_l/ankle_angle_l/accel	/jointset/subtalar_l/subtalar_angle_l/accel	gamma_cid13_p0	gamma_cid13_p1	gamma_cid13_p2	gamma_cid13_p3	gamma_cid13_p4	gamma_cid13_p5	gamma_cid14_p0
0.5	-0.4470565619029651	-0.0741503259858646	0.763079437458299	1.265425903261961	-0.3093623256995381	-0.04577519674217459	-0.3288057215178801	0.6885413157525357	0.6885413157525153	-0.1727131631752952	0.1734967576959877	0.03640709470409911	-0.04880038209796292	-0.7454044763473755	-0.272253950054005	-0.4996618885216293	2.388782408491676	-0.03525365794675499	0.6183393606454346	-0.6277091609427127	1.784273387892395	1.784273387892446	-0.008685628164058339	0.004923896424522678	0.2343170075462892	-0.01002411784080188	-0.2437080115081774	0.02924856743584995	-0.02146391448440709	-0.203849031370797	0.1451852433737142	0.03044805033594923	0.2190346290035833	7.587070975955977	-17.24988890196155	5.429289502835867	-5.359079738683005	-606.1626651581506	-48.87873979554452	-28.30957242675724	0.5997678394305116	0.6904885466990341	-0.3331630318285154	-1.444585145179013	0.6742428129866638	-0.1850007409327251	1.735275983960717	-1.072971944924011	-1.072971944924026	0.1189903172563518	-0.1650074776075536	-0.1240876996266491	0.6563164488367634	-2.728260563511014e-07	-7.946376002425048e-07	1.386552333877148e-06	7.528031288093229e-08	-3.651865824383469e-07	5.232894008215435e-08	-3.087596141413446e-07
0.51	-0.4544791255411546	-0.07683803658170101	0.7580671872344297	1.289237241822989	-0.3096831123572348	-0.03960200667230344	-0.3349959822223417	0.7063274617551873	0.7063274617551857	-0.1727975840841162	0.1735392590018318	0.03874284142545605	-0.04886995844043975	-0.7390240234892087	-0.2652660138671151	-0.5026895127780217	2.373177863775199	-0.0289593115237405	0.6161035501584483	-0.6102661894381579	1.772720539660627	1.772720539660645	-0.008214638137722816	0.003707981693677844	0.2327637594967923	-0.00395229363695283	-0.2518269268611342	0.02970961882457485	-0.02157960305305068	-0.2051246659636846	0.1450281326562614	0.03104786828427394	0.2253153798405072	7.297133686785425	-17.34475058354545	5.313199777431653	-5.295111354498137	-610.6289604305665	-48.52596839983913	-27.27372363352232	0.6697784922771173	0.7062968063570362	-0.2728468800290737	-1.664554203114398	0.5985516138236159	-0.2724464764654035	1.760326310418397	-1.231664265930506	-1.231664265935176	0.00870162733093037	-0.08050032376662464	-0.1812285257103382	0.5733571909931741	-3.200376556747862e-07	-6.533056116519573e-07	1.613049035713103e-06	1.312670565279131e-07	-3.898814542684627e-07	1.076764559220527e-07	-3.28945012006675e-07
0.52	-0.461835365754109	-0.07945519768533388	0.7530276038164992	1.312883301923205	-0.3099426513393282	-0.033457089762079	-0.3410095094964146	0.7239910346747956	0.7239910346748127	-0.172877785436271	0.1735734777897789	0.0410609986326982	-0.04888066818391124	-0.7321397913003482	-0.2581440516133023	-0.5051285273337859	2.355726716329425	-0.02300412282608074	0.6126847287161095	-0.5923624748649813	1.759758771283768	1.759758771283757	-0.007841716830867354	0.003267392845080945	0.2307991047233305	0.001749201960264207	-0.2599458422140912	0.03017067021329957	-0.02169529162169301	-0.2064003005565725	0.1448710219388084	0.03164768623259846	0.2315961306774311	7.00372769307931	-17.44260945297569	5.201705729572244	-5.251572706439526	-615.169845628286	-48.25211374301018	-26.23543713804774	0.7005237055692138	0.7172937600835921	-0.2154410917029403	-1.813905691038812	0.6064112679157188	-0.4216029320032028	1.827424597685089	-1.354755973942064	-1.35475597394202	0.09937657336034024	-0.009942301158472455	-0.2063690444196144	0.5822507275103609	-2.969221104866613e-07	-5.988840928571392e-07	1.499737124984662e-06	1.200402944219585e-07	-3.565211641622781e-07	1.267831999150716e-07	-3.071855847605363e-07
0.53	-0.4691202657542862	-0.08200053575332324	0.7479666217000074	1.336345864442148	-0.3101438671690332	-0.02735106448250022	-0.3468418352379545	0.7415180544023808	0.7415180544023803	-0.1729542722644807	0.1736058118815536	0.04335772394264763	-0.04883569776711273	-0.7247518931570855	-0.2509071764104489	-0.5069632519892028	2.336483821951519	-0.01726333366626672	0.6084542255212215	-0.5740462336413086	1.745406715437279	1.745406715437275	-0.007468501116393081	0.003192715018024058	0.2284960263832857	0.007218827517067046	-0.2680050815731296	0.03051595484833047	-0.02176534708297919	-0.2077680687455589	0.1447790319879796	0.03206238655728361	0.2377832602121021	6.720623993074236	-17.46350112019322	5.079797077381595	-5.174502441100826	-619.7821397630398	-47.87350194770821	-25.19692436983081	0.7711349225471666	0.7293650651876106	-0.1518593558701443	-2.024819254698797	0.5541485825104608	-0.4339540715680322	1.842189854959407	-1.51114005812203	-1.511140058120967	0.004329796938123902	-0.007548289713466393	-0.2497652643379804	0.5253328679825413	-2.697130533127838e-07	-5.564812738171698e-07	1.375760579742303e-06	1.048633040409955e-07	-3.21686166766182e-07	1.425325692973736e-07	-2.843585721703696e-07
